<svg aria-hidden="true" style="position: absolute; width: 0; height: 0; overflow: hidden;" version="1.1" xmlns="http://www.w3.org/2000/svg" xmlns:xlink="http://www.w3.org/1999/xlink">
<defs>
<symbol id="icon-bookmark" viewBox="0 0 32 32">
<path fill="none" stroke="#70778b" style="stroke: var(--color1, #70778b)" stroke-linejoin="miter" stroke-linecap="butt" stroke-miterlimit="4" stroke-width="2" d="M8 8c0-1.473 1.194-2.667 2.667-2.667h10.667c1.473 0 2.667 1.194 2.667 2.667v15.993c0 1.166-1.391 1.77-2.243 0.975l-4.847-4.525c-0.512-0.478-1.308-0.478-1.82 0l-4.847 4.525c-0.852 0.796-2.243 0.191-2.243-0.975v-15.993z"></path>
</symbol>
<symbol id="icon-share" viewBox="0 0 32 32">
<path fill="#70778b" style="fill: var(--color1, #70778b)" d="M22.464 23.855l-11.408-6.667c0.080-0.37 0.144-0.739 0.144-1.124s-0.064-0.755-0.144-1.125l11.28-6.602c0.864 0.803 2 1.301 3.264 1.301 2.656 0 4.8-2.153 4.8-4.819s-2.144-4.819-4.8-4.819c-2.656 0-4.8 2.153-4.8 4.819 0 0.386 0.064 0.755 0.144 1.125l-11.28 6.602c-0.864-0.803-2-1.301-3.264-1.301-2.656 0-4.8 2.153-4.8 4.819s2.144 4.819 4.8 4.819c1.264 0 2.4-0.498 3.264-1.301l11.392 6.683c-0.080 0.337-0.128 0.691-0.128 1.044 0 2.586 2.096 4.691 4.672 4.691s4.672-2.104 4.672-4.691c0-2.586-2.096-4.691-4.672-4.691-1.216 0-2.304 0.482-3.136 1.237z"></path>
</symbol>
<symbol id="icon-go-pagination-forw" viewBox="0 0 32 32">
<path fill="#7D859C" style="fill: var(--color2, #7D859C)" d="M8.005 2.69c1.47-1.47 3.854-1.47 5.324 0l10.648 10.648c1.47 1.47 1.47 3.854 0 5.324l-10.648 10.648c-1.47 1.47-3.854 1.47-5.324 0s-1.47-3.854 0-5.324l7.986-7.986-7.986-7.986c-1.47-1.47-1.47-3.854 0-5.324z"></path>
</symbol>
<symbol id="icon-go-pagination-back" viewBox="0 0 32 32">
<path fill="#7D859C" style="fill: var(--color2, #7D859C)" d="M23.995 2.69c-1.47-1.47-3.854-1.47-5.324 0l-10.648 10.648c-1.47 1.47-1.47 3.854 0 5.324l10.648 10.648c1.47 1.47 3.854 1.47 5.324 0s1.47-3.854 0-5.324l-7.986-7.986 7.986-7.986c1.47-1.47 1.47-3.854 0-5.324z"></path>
</symbol>
<symbol id="icon-star" viewBox="0 0 32 32">
<path fill="#38415d" style="fill: var(--color3, #38415d)" d="M11.282 8.572c1.231-2.793 3.573-7.729 4.745-7.729 1.703-0.002 5.433 9.576 5.433 9.576s3.453 0.301 6.244 0.61c1.481 0.163 4.127 0.413 4.293 1.229 0.035 0.177-0.177 0.899-0.564 1.403-1.639 2.139-5.891 6.722-5.891 6.722s0.233 2.189 0.441 4.584c0.133 1.549 0.493 4.689 0.363 5.25-0.142 0.618-0.397 0.787-0.662 0.884-0.693 0.253-2.301-0.729-4.179-1.629-2.559-1.228-5.435-2.54-5.435-2.54s-1.897 0.992-4.146 1.96c-2.402 1.034-4.835 2.739-5.85 2.139-0.633-0.376-0.164-3.303 0.079-5.908 0.228-2.457 0.426-4.702 0.426-4.702s-1.409-1.654-3.049-3.422c-1.772-1.912-3.933-3.975-3.465-4.733 0.353-0.573 1.965-0.879 4.671-1.214 2.875-0.357 5.747-0.61 5.747-0.61s0.313-0.769 0.799-1.871z"></path>
</symbol>
<symbol id="icon-location" viewBox="0 0 32 32">
<path fill="#878d9d" style="fill: var(--color4, #878d9d)" d="M16 32c0 0-11.556-10.719-11.556-19.556s5.174-12.444 11.556-12.444c6.382 0 11.556 3.608 11.556 12.444s-11.556 19.556-11.556 19.556zM16 17.778c3.436 0 6.222-2.786 6.222-6.222s-2.786-6.222-6.222-6.222c-3.436 0-6.222 2.786-6.222 6.222s2.786 6.222 6.222 6.222z"></path>
</symbol>
</defs>
</svg>
